<svg id="Layer_5" enable-background="new 0 0 64 64" height="512" viewBox="0 0 64 64" width="512" xmlns="http://www.w3.org/2000/svg"><g><path d="m62.813 18.581.426-.596-.439-.585c-.502-.67-12.397-16.4-20.8-16.4-3.583 0-8.2 3.94-10 5.614-1.8-1.674-6.417-5.614-10-5.614-8.403 0-20.298 15.73-20.8 16.4l-.439.586.426.595c.386.54 9.52 13.027 27.813 14.306v2.113h-1.618l-3.382 6.764v19.236h-19v2h54v-2h-19v-19.236l-3.382-6.764h-1.618v-2.113c18.293-1.279 27.427-13.765 27.813-14.306zm-40.813-15.581c2.937 0 7.704 4.12 9.293 5.708l.707.705.707-.706c1.589-1.587 6.356-5.707 9.293-5.707 5.494 0 13.899 8.99 17.949 14h-55.898c4.05-5.01 12.455-14 17.949-14zm-17.848 16h55.7c-3.046 3.333-11.371 10.864-24.852 11.866v-7.401l-3.697-2.465h-2.303v9.865c-13.448-1.001-21.791-8.532-24.848-11.865zm29.848 42h-4v-12h4zm2 0v-14h-8v14h-2v-18h12v18zm1.382-20h-10.764l2-4h6.764zm-6.382-6v-11.798l2 1.333v10.465z"/><path d="m61 61h2v2h-2z"/><path d="m1 61h2v2h-2z"/><path d="m44.408 5.598c-.913-.402-1.7-.598-2.408-.598v2c.412 0 .966.148 1.602.428z"/><path d="m53.592 15.718 1.471-1.354c-2.983-3.242-5.981-5.917-8.441-7.532l-1.098 1.672c2.327 1.527 5.192 4.089 8.068 7.214z"/></g></svg>