<?xml version="1.0"?>
<svg xmlns="http://www.w3.org/2000/svg" viewBox="0 0 512 512" width="512" height="512"><g id="Beauty_Face_Mask" data-name="Beauty Face Mask"><g id="Outline"><path d="M224,56a8,8,0,0,0-8-8c-25.05,0-87.439,4.126-125.657,42.343a8,8,0,0,0,11.314,11.314C136.6,66.715,198.01,64,216,64A8,8,0,0,0,224,56Z"/><path d="M426.837,194.966A8,8,0,1,0,439,184.574c-17.459-20.441-40.716-39.715-69.125-57.288a8,8,0,0,0-8.417,13.608C388.459,157.593,410.455,175.786,426.837,194.966Z"/><circle cx="152" cy="128" r="8"/><path d="M93.78,222.6a8,8,0,0,0-11.015,2.583C70.313,245.262,64,266.4,64,288a8,8,0,0,0,16,0c0-18.579,5.5-36.877,16.363-54.387A8,8,0,0,0,93.78,222.6Z"/><path d="M103.321,198.682a8,8,0,0,0,11.658,10.959c13.6-14.462,31.224-28.435,52.4-41.532a8,8,0,1,0-8.417-13.607C136.6,168.336,117.876,183.2,103.321,198.682Z"/><path d="M439.67,287.86c.21,0,.43-.01.64-.02a8.158,8.158,0,1,0-.64.02Z"/><path d="M435.3,256.28a8.013,8.013,0,0,0,4.45-10.4c-5.56-13.91-14-27.55-25.08-40.52-15.31-17.92-36.04-35.03-61.63-50.86a8,8,0,0,0-8.41,13.61c24.18,14.96,43.65,30.98,57.87,47.64,9.95,11.65,17.48,23.78,22.4,36.07a7.956,7.956,0,0,0,7.43,5.03A8.039,8.039,0,0,0,435.3,256.28Z"/><path d="M47.506,308.235c-8.794-55.7.931-100.212,28.948-132.321,21.217-24.318,45.675-32.2,45.9-32.268a8,8,0,0,0-4.706-15.292c-1.149.354-28.427,8.976-52.639,36.345-18.372,20.768-37.782,56.071-36.48,111.767C20.219,258.641,16,241.031,16,224A206.673,206.673,0,0,1,97.97,58.51a8,8,0,1,0-9.69-12.72h-.01a224.9,224.9,0,0,0-64.25,77.19A223.155,223.155,0,0,0,0,224a130.3,130.3,0,0,0,5.16,35.76,166.859,166.859,0,0,0,14.1,33.83,219.8,219.8,0,0,0,13.215,21.129,7.972,7.972,0,0,0,2.51,3.508q2.556,3.5,5.275,6.993a326.153,326.153,0,0,0,26.08,29.3,7.991,7.991,0,0,0,11.31.01,8,8,0,0,0,.01-11.31A296.306,296.306,0,0,1,47.506,308.235Z"/><path d="M119.91,42.7a8.006,8.006,0,1,0-7.01-4.14A8.005,8.005,0,0,0,119.91,42.7Z"/><path d="M507.45,178.86a223.02,223.02,0,0,0-33.71-80.1A223.541,223.541,0,0,0,288,0H224a223.261,223.261,0,0,0-77.8,13.88,8.006,8.006,0,0,0,2.78,15.51,8.034,8.034,0,0,0,2.78-.5A207.287,207.287,0,0,1,224,16h64a207.3,207.3,0,0,1,87.921,19.39C372.6,113.556,255.258,143.938,254.056,144.24c-.186.046-.364.107-.544.165-.034.012-.07.015-.1.027C246.981,146.632,96,199.355,96,288v79.94c0,51.284,51.276,95.9,94.291,124.305a119.038,119.038,0,0,0,131.417,0C364.724,463.844,416,419.224,416,367.94V288c0-69.567-92.978-117-136.109-135.267a272.667,272.667,0,0,0,44.193-20.854A178.233,178.233,0,0,0,360.075,104.3c30.62,8.464,74.331,38.4,88.77,67.274a8,8,0,1,0,14.31-7.156c-15.595-31.19-58.381-61.642-91.67-73.294a110.669,110.669,0,0,0,8.726-13.493c5.12,2.906,10.121,5.858,14.918,8.827a8,8,0,0,0,8.422-13.6c-5.394-3.339-11.024-6.66-16.8-9.912a93.007,93.007,0,0,0,4.558-19.563A209.307,209.307,0,0,1,435.08,76.92,206.7,206.7,0,0,1,496,224c.03,29.38-12.44,60.2-37.05,91.6a312.844,312.844,0,0,1-24.61,27.62,8,8,0,1,0,11.32,11.3,328.626,328.626,0,0,0,25.88-29.05c12.67-16.17,22.49-32.45,29.18-48.4,7.47-17.79,11.27-35.64,11.28-53.07A225.531,225.531,0,0,0,507.45,178.86ZM355.478,214.734l-15.915,10.61a8,8,0,1,0,8.875,13.312l19.513-13.009C386.623,243.542,400,264.546,400,288v79.94c0,22.688-12.5,44.42-30.044,63.749l-21.518-14.345a8,8,0,1,0-8.875,13.312l18.979,12.653c-14.3,13.541-30.528,25.6-45.652,35.586a103.064,103.064,0,0,1-113.782,0c-15.123-9.985-31.348-22.044-45.65-35.585l18.98-12.653a8,8,0,0,0-8.875-13.312l-21.519,14.345C124.5,412.361,112,390.628,112,367.94V288c0-23.454,13.377-44.458,32.049-62.353l19.514,13.009a8,8,0,0,0,8.875-13.312l-15.916-10.61C194.281,184.322,244.148,164.876,256,160.5,267.852,164.876,317.719,184.322,355.478,214.734Z"/><path d="M336,56a8,8,0,0,0-8-8H248a8,8,0,0,0,0,16h80A8,8,0,0,0,336,56Z"/><path d="M264,80a8,8,0,0,0,0,16h48a8,8,0,0,0,0-16Z"/><path d="M280,392H232a40,40,0,0,0,0,80h48a40,40,0,0,0,0-80Zm0,64H232a24,24,0,0,1,0-48h48a24,24,0,0,1,0,48Z"/><path d="M200,304H168a8,8,0,0,0,0,16h32a8,8,0,0,0,0-16Z"/><path d="M312,320h32a8,8,0,0,0,0-16H312a8,8,0,0,0,0,16Z"/><path d="M280,424H232a8,8,0,0,0,0,16h48a8,8,0,0,0,0-16Z"/><path d="M240,312a56,56,0,1,0-56,56A56.064,56.064,0,0,0,240,312Zm-56,40a40,40,0,1,1,40-40A40.045,40.045,0,0,1,184,352Z"/><path d="M328,368a56,56,0,1,0-56-56A56.064,56.064,0,0,0,328,368Zm0-96a40,40,0,1,1-40,40A40.045,40.045,0,0,1,328,272Z"/></g></g></svg>
