<svg viewBox="0 0 512 512" xmlns="http://www.w3.org/2000/svg"><g id="Beauty_Lips" data-name="Beauty Lips"><g id="Outline"><path d="m103.96 47.96a8.081 8.081 0 0 0 3.689-.91h.021c7.78-4.369 3.984-16.207-5-14.987-9.757 1.487-8.231 15.789 1.29 15.897z"/><path d="m303.97 293.45c-1.712-13.047-24.5-4.2-32.5-5.713-121.428 5.105-232.117-41.637-255.191-158.507 3.578-6.048 14.562-23.012 34.836-42.092 8.278-8.669 23.124-18.438 32.171-26.373 3.712-5.384-.979-13.213-7.943-12.226-27.143 13.828-62.343 53.016-74.413 75.341l-.02.03a8.057 8.057 0 0 0 -.881 4.47.61.61 0 0 1 .021.11c24.493 138.303 158.716 182.81 282.011 174.777 8.311-1.132 21.965 1.645 21.909-9.817z"/><path d="m511.09 123.91-.021-.03c-38.785-68.055-131.622-119.935-212.907-123.553-15.362 2.173-26.544 17.399-41.177 19.773-15.3-.143-27.689-18.461-44.7-19.974-28.294 1.409-56.869 9.908-82.1 19.164-5.532 1.936-7.245 10.872-1.172 14.344 4.258 2.616 7.452.187 12.128-1.365 102.675-33.779 65.235-3.715 114.859 3.862 17.041.733 30.4-17.068 46.09-20.132 79.695 8.971 154.21 50.301 193.63 113.241-12.277 68.286-53.58 88.713-47.02 98.661 10.7 21.628 41.629-37.471 45.145-43.406 8.17-13.529 18.49-49.643 18.1-55.985a.7.7 0 0 1 .02-.13 8.065 8.065 0 0 0 -.875-4.47z"/><path d="m346.55 201.01c-7.257 7.586 3.323 18.458 11.17 11.45 7.239-7.647-3.351-18.45-11.17-11.45z"/><path d="m448 400h-8v-56a8 8 0 0 0 -8-8c-.009-.028.006-116.324 0-133.82v-2.18a24.77 24.77 0 0 0 -4.56-14.081c-9.59-18.386-61.652-7.847-56.388 5.446 2.383 8.906 10.868 5.719 17.391 3.318 9.615-2.272 26.777-6.85 27.557 5.327v135.99h-80c1.135-20.148-3.825-83.468 5.609-99.91 3.043-6.978-5.4-14.471-12.221-9.471-5.458 5.646-6.1 14.6-8.053 22-2.63 10.535-.854 75.72-1.335 87.382a8 8 0 0 0 -8 8v56c-22.372-1.447-14.564 9.745-16 25.414v78.51c-.432 7.277 10.906 12.071 15.372 3.19 1.573-6.216.216-4.211.629-13.5 0-23.3 0-77.574 0-77.609h127.999v88a8 8 0 0 0 16 0v-96.006a8 8 0 0 0 -8-8zm-24 0h-96v-48h96z"/><path d="m40.775 124.83c.38 12.933 18.724 6.036 31.614 5.41 25.477-2.977 48.37-6.015 50.336-6.275a104.687 104.687 0 0 1 54.98 9.384c29.011 17.6 53.795 28.754 85.142 26.454 58.805-4.029 70.476-42.6 126.428-35.838-1.523-1.5 80.232 13.972 80.387 5.609 9.443-16.991-22.323-13.07-37.383-16.315-34.52-3.834-33.33-5.148-53.332-5.841a120.229 120.229 0 0 0 -53.181 12.28c-98.824 61.1-120.789-9.709-181.971-11.818-30.463-1.594-40.24 3.843-95.711 8.979a8 8 0 0 0 -7.309 7.971z"/></g></g></svg>