<?xml version="1.0" encoding="iso-8859-1"?>
<!-- Generator: Adobe Illustrator 19.0.0, SVG Export Plug-In . SVG Version: 6.00 Build 0)  -->
<svg version="1.1" id="Layer_1" xmlns="http://www.w3.org/2000/svg" xmlns:xlink="http://www.w3.org/1999/xlink" x="0px" y="0px"
	 viewBox="0 0 490.667 490.667" style="enable-background:new 0 0 490.667 490.667;" xml:space="preserve">
<g>
	<g>
		<g>
			<path d="M234.667,154.667c0-64.704-52.629-117.333-117.333-117.333S0,89.963,0,154.667S52.629,272,117.333,272
				S234.667,219.371,234.667,154.667z M117.333,250.667c-52.928,0-96-43.072-96-96c0-52.928,43.072-96,96-96s96,43.072,96,96
				C213.333,207.595,170.261,250.667,117.333,250.667z"/>
			<path d="M117.333,144c4.331,0,8.235-2.624,9.877-6.635c5.227-12.8,11.456-29.419,11.456-36.032
				c0-11.755-9.579-21.333-21.333-21.333C105.579,80,96,89.579,96,101.333c0,6.613,6.229,23.232,11.456,36.032
				C109.099,141.376,113.003,144,117.333,144z"/>
			<path d="M170.667,133.333c-6.613,0-23.232,6.229-36.032,11.456c-4.011,1.643-6.635,5.547-6.635,9.877
				c0,4.331,2.624,8.235,6.635,9.877c12.8,5.227,29.419,11.456,36.032,11.456c11.755,0,21.333-9.579,21.333-21.333
				C192,142.912,182.421,133.333,170.667,133.333z"/>
			<path d="M107.456,171.968C102.229,184.768,96,201.387,96,208c0,11.755,9.579,21.333,21.333,21.333
				c11.755,0,21.333-9.579,21.333-21.333c0-6.613-6.229-23.232-11.456-36.032C123.925,163.947,110.72,163.947,107.456,171.968z"/>
			<path d="M106.667,154.667c0-4.331-2.624-8.235-6.635-9.877c-12.8-5.227-29.419-11.456-36.032-11.456
				c-11.755,0-21.333,9.579-21.333,21.333C42.667,166.421,52.245,176,64,176c6.613,0,23.232-6.229,36.032-11.456
				C104.043,162.901,106.667,158.997,106.667,154.667z"/>
			<path d="M426.667,133.333c-6.613,0-23.232,6.229-36.032,11.456c-4.011,1.643-6.635,5.547-6.635,9.877
				c0,4.331,2.624,8.235,6.635,9.877c12.8,5.227,29.419,11.456,36.032,11.456c11.755,0,21.333-9.579,21.333-21.333
				C448,142.912,438.421,133.333,426.667,133.333z"/>
			<path d="M363.456,171.968C358.229,184.768,352,201.387,352,208c0,11.755,9.579,21.333,21.333,21.333
				c11.755,0,21.333-9.579,21.333-21.333c0-6.613-6.229-23.232-11.456-36.032C379.925,163.947,366.72,163.947,363.456,171.968z"/>
			<path d="M362.411,400c-18.069,0.64-30.293-5.653-42.496-11.541c-10.453-5.035-20.288-9.792-31.915-9.792
				c-13.611,0-21.824,3.755-28.437,6.763c-4.992,2.261-8.576,3.904-14.229,3.904s-9.259-1.643-14.229-3.904
				c-6.613-3.008-14.827-6.763-28.437-6.763c-11.627,0-21.461,4.757-31.893,9.813c-12.203,5.888-24.747,12.117-42.496,11.541
				c-5.035,0.32-9.216,3.093-10.539,7.787c-1.323,4.693,0.725,9.685,4.949,12.117c39.68,22.784,78.656,33.408,122.645,33.408
				S328.299,442.709,368,419.904c4.224-2.411,6.272-7.424,4.949-12.117C371.627,403.115,367.104,400.277,362.411,400z M245.333,432
				c-29.547,0-56.64-5.291-83.392-16.405c6.72-2.432,12.693-5.312,18.091-7.936c8.533-4.096,15.893-7.659,22.635-7.659
				c8.981,0,13.909,2.24,19.605,4.843c5.995,2.731,12.8,5.824,23.061,5.824c10.261,0,17.067-3.093,23.061-5.824
				C274.091,402.24,279.019,400,288,400c6.741,0,14.101,3.563,22.613,7.659c5.419,2.603,11.392,5.483,18.112,7.936
				C301.973,426.731,274.88,432,245.333,432z"/>
			<path d="M373.333,37.333C308.629,37.333,256,89.963,256,154.667S308.629,272,373.333,272s117.333-52.629,117.333-117.333
				S438.037,37.333,373.333,37.333z M373.333,250.667c-52.928,0-96-43.072-96-96c0-52.928,43.072-96,96-96s96,43.072,96,96
				C469.333,207.595,426.261,250.667,373.333,250.667z"/>
			<path d="M373.333,144c4.331,0,8.235-2.624,9.877-6.635c5.227-12.8,11.456-29.419,11.456-36.032
				c0-11.755-9.579-21.333-21.333-21.333C361.579,80,352,89.579,352,101.333c0,6.613,6.229,23.232,11.456,36.032
				C365.099,141.376,369.003,144,373.333,144z"/>
			<path d="M362.667,154.667c0-4.331-2.624-8.235-6.635-9.877c-12.8-5.227-29.419-11.456-36.032-11.456
				c-11.755,0-21.333,9.579-21.333,21.333c0,11.755,9.579,21.333,21.333,21.333c6.613,0,23.232-6.229,36.032-11.456
				C360.043,162.901,362.667,158.997,362.667,154.667z"/>
		</g>
	</g>
</g>
<g>
</g>
<g>
</g>
<g>
</g>
<g>
</g>
<g>
</g>
<g>
</g>
<g>
</g>
<g>
</g>
<g>
</g>
<g>
</g>
<g>
</g>
<g>
</g>
<g>
</g>
<g>
</g>
<g>
</g>
</svg>
