<svg id="heart_x5F_wings" enable-background="new 0 0 300 300" height="512" viewBox="0 0 300 300" width="512" xmlns="http://www.w3.org/2000/svg"><path d="m66.039 56c2.209 0 4-1.791 4-4v-12c0-2.209-1.791-4-4-4s-4 1.791-4 4v12c0 2.209 1.791 4 4 4z"/><path d="m66.039 64c-2.209 0-4 1.791-4 4v12c0 2.209 1.791 4 4 4s4-1.791 4-4v-12c0-2.209-1.791-4-4-4z"/><path d="m46.039 64h12c2.209 0 4-1.791 4-4s-1.791-4-4-4h-12c-2.209 0-4 1.791-4 4s1.791 4 4 4z"/><path d="m74.039 64h12c2.209 0 4-1.791 4-4s-1.791-4-4-4h-12c-2.209 0-4 1.791-4 4s1.791 4 4 4z"/><path d="m206.039 220v12c0 2.209 1.791 4 4 4s4-1.791 4-4v-12c0-2.209-1.791-4-4-4s-4 1.791-4 4z"/><path d="m210.039 244c-2.209 0-4 1.791-4 4v12c0 2.209 1.791 4 4 4s4-1.791 4-4v-12c0-2.209-1.791-4-4-4z"/><path d="m202.039 236h-12c-2.209 0-4 1.791-4 4s1.791 4 4 4h12c2.209 0 4-1.791 4-4s-1.791-4-4-4z"/><path d="m230.039 236h-12c-2.209 0-4 1.791-4 4s1.791 4 4 4h12c2.209 0 4-1.791 4-4s-1.791-4-4-4z"/><path d="m252.039 76c7.72 0 14-6.28 14-14s-6.28-14-14-14-14 6.28-14 14 6.28 14 14 14zm0-20c3.309 0 6 2.691 6 6s-2.691 6-6 6-6-2.691-6-6 2.691-6 6-6z"/><path d="m52.039 228c-7.72 0-14 6.28-14 14s6.28 14 14 14 14-6.28 14-14-6.281-14-14-14zm0 20c-3.309 0-6-2.691-6-6s2.691-6 6-6 6 2.691 6 6-2.692 6-6 6z"/><circle cx="186.039" cy="48" r="4"/><circle cx="254.039" cy="212" r="4"/><circle cx="66.039" cy="200" r="4"/><circle cx="134.039" cy="252" r="4"/><circle cx="114.039" cy="76" r="4"/><path d="m196.893 184c23.438 0 45.719-10.422 59.599-27.879 25.259-31.767 6.65-60.486 6.459-60.772-.897-1.347-2.521-2.02-4.104-1.705-1.587.314-2.829 1.553-3.145 3.14-.172.858-4.499 21.029-30.021 21.029-8.31 0-15.762.879-22.209 2.6-5.645-6.617-13.702-11.2-23.004-12.26-12.655-1.444-24.951 4.038-32.421 13.971-6.632-8.894-17.012-14.199-28.411-14.199-10.432 0-19.828 4.516-26.339 11.694-5.634-1.195-11.982-1.807-18.897-1.807-25.315 0-29.844-20.188-30.021-21.029-.316-1.587-1.559-2.826-3.146-3.14-1.591-.314-3.207.358-4.104 1.705-.199.299-4.896 7.446-6.405 18.516-1.384 10.156-.276 25.73 12.864 42.256 13.878 17.458 36.159 27.88 59.597 27.88h.822c11.449 14.202 26.617 27.84 42.242 35.652.563.282 1.177.422 1.789.422.66 0 1.319-.163 1.915-.488 16.001-8.727 31.214-21.351 42.917-35.586zm28.787-58.188c19.664 0 29.438-10.264 34.064-18.242 1.347 4.232 2.443 9.974 1.877 16.67l-21.009 8.023c-2.064.788-3.098 3.1-2.311 5.164.609 1.595 2.127 2.574 3.738 2.574.474 0 .956-.085 1.426-.264l16.351-6.244c-.998 3.236-2.44 6.609-4.425 10.072l-22.779 8.698c-2.064.788-3.098 3.1-2.311 5.164.609 1.595 2.127 2.574 3.738 2.574.474 0 .956-.085 1.426-.264l10.802-4.125c-11.977 12.367-29.124 19.792-47.264 20.33 7.309-10.451 11.872-20.518 12.773-28.434.813-7.14-.566-14.031-3.589-20.01 5.158-1.117 11.016-1.686 17.493-1.686zm-171.869 29.8 10.801 4.125c.47.179.951.264 1.426.264 1.61 0 3.129-.98 3.737-2.574.789-2.063-.245-4.375-2.31-5.164l-22.794-8.705c-2.001-3.474-3.455-6.851-4.464-10.086l16.405 6.265c.47.179.951.264 1.426.264 1.61 0 3.129-.98 3.737-2.574.789-2.063-.245-4.375-2.31-5.164l-21.091-8.054c-.58-6.732.543-12.482 1.919-16.71 4.609 7.988 14.383 18.313 34.105 18.313 4.982 0 9.619.336 13.839 1-2.653 4.976-4.163 10.651-4.163 16.673 0 8.23 5.285 20.097 13.761 32.289-16.932-1.274-32.764-8.534-44.024-20.162zm94.149 55.921c-29.979-15.969-55.887-53.234-55.887-68.047 0-15.197 12.363-27.561 27.561-27.561 10.647 0 20.15 5.98 24.801 15.607.667 1.382 2.066 2.26 3.602 2.26h.002c1.535 0 2.935-.88 3.602-2.263 5.086-10.55 16.298-16.752 27.922-15.429 15.099 1.72 25.985 15.403 24.266 30.502-2.621 23.022-34.025 52.358-55.869 64.931z"/><path d="m182.382 168.011c-1.797-1.284-4.296-.868-5.58.931-3.618 5.068-9.949 12.628-19.562 19.864-1.766 1.329-2.119 3.836-.791 5.602.786 1.044 1.985 1.594 3.199 1.594.838 0 1.682-.262 2.402-.804 8.253-6.211 15.604-13.683 21.263-21.607 1.284-1.799.867-4.297-.931-5.58z"/></svg>