<?xml version="1.0"?>
<svg xmlns="http://www.w3.org/2000/svg" viewBox="0 0 512 512" width="512" height="512"><g id="Beauty_Spa_Waxing" data-name="Beauty Spa Waxing"><g id="Outline"><path d="M320,191.729a8,8,0,1,0,16,0v-16c0-29.608,19.473-48,50.82-48a46.921,46.921,0,0,1,37.55,18.78l73.23,97.639a8,8,0,1,0,12.8-9.6l-73.23-97.64a62.914,62.914,0,0,0-50.35-25.18c-39.967,0-66.82,25.719-66.82,64Z"/><path d="M392,327.729a8,8,0,0,0-16,0v40a8,8,0,0,0,2.343,5.656l1.159,1.15c16.707,16.535,25.19,29.228,25.212,37.724a7.615,7.615,0,0,1-2.371,5.812A72.179,72.179,0,0,1,388.766,428.6a87.693,87.693,0,0,0-16.248,12.673c-6.094,6.093-11.475,14.235-17.17,22.853-5.4,8.162-10.973,16.6-16.771,22.4-12.281,12.282-26.984,10.41-36.911,6.855l15.991-15.991a8.013,8.013,0,0,0,1.84-2.864l24-64.4a8,8,0,0,0,.5-2.794v-23.6a8,8,0,0,0-16,0v22.156L305.112,467.3l-22.769,22.768a8,8,0,0,0,1.541,12.517c9.23,5.539,20.583,9.455,32.185,9.454a46.635,46.635,0,0,0,33.821-14.205c6.943-6.942,12.973-16.068,18.806-24.894,5.238-7.925,10.185-15.411,15.135-20.361a72.089,72.089,0,0,1,13.578-10.522,87.815,87.815,0,0,0,16.248-12.674,23.7,23.7,0,0,0,7.057-17.169C420.67,395.335,404.669,377.076,392,364.4Z"/><circle cx="152" cy="216.43" r="8"/><path d="M8,96H96V280a32,32,0,1,0,64,0V248.43a8,8,0,0,0-16,0V280a16,16,0,0,1-32,0V24a8.036,8.036,0,0,1,8-8h88V72a8,8,0,0,0,16,0V16h8a8.036,8.036,0,0,1,8,8V168a24,24,0,0,1-48,0V136a24,24,0,0,0-48,0v48.43a8,8,0,0,0,16,0V136a8,8,0,0,1,16,0v32a40,40,0,0,0,80,0V96h40a40,40,0,0,0,0-80H280a8,8,0,0,0,0,16h16a24,24,0,1,1,0,48H256V24A24,24,0,0,0,232,0H120A24,24,0,0,0,96,24V80H8A8,8,0,0,0,8,96Z"/><path d="M8,32H72a8,8,0,0,0,0-16H8A8,8,0,0,0,8,32Z"/><path d="M374.864,215.73c4.231.059,23.239,5.936,26.756,8.271.073.05.148.1.222.146l9.384,5.977a8.008,8.008,0,0,0,.99.631L499.7,286.478a8,8,0,1,0,8.6-13.5L422.445,218.3l-15.017-37.543a8,8,0,0,0-14.856,5.941l7.775,19.438c-9.014-3.28-20.708-6.407-25.477-6.407a62.939,62.939,0,0,0-44.659,18.416c-8.535,8.481-21.13,20.97-35.994,35.62-.02.02-.042.036-.062.056s-.027.031-.041.046q-4.861,4.792-10.023,9.868a8,8,0,0,0,11.219,11.409q2.261-2.225,4.462-4.392l15.708,15.708-36.873,36.874a68.391,68.391,0,0,0-10.775-43.6L254.7,259.626A8,8,0,0,0,248,256H208a8,8,0,0,0-6.882,12.078l21.635,36.51a17.613,17.613,0,0,1-2.947,21.75c-.017.017-.032.036-.05.053s-.039.034-.058.052c-.078.079-.145.163-.219.244-.091.1-.184.195-.269.3s-.182.233-.27.351c-.069.093-.14.184-.2.279-.092.136-.175.276-.258.416-.05.084-.1.167-.149.253-.083.152-.156.308-.228.464-.037.081-.078.16-.113.243-.067.16-.124.322-.181.485-.03.085-.062.169-.089.255-.05.16-.089.322-.128.484-.023.094-.049.186-.069.281-.032.158-.054.318-.076.478-.015.1-.033.2-.044.3-.017.165-.023.33-.029.5,0,.085-.015.17-.016.255,0,.012,0,.023,0,.034,0,.185.011.369.022.553,0,.077,0,.154.011.23a7.963,7.963,0,0,0,1.77,4.32,7.757,7.757,0,0,0,.538.6l27.9,27.9a8,8,0,0,0,11.314,0l73.539-73.539a8,8,0,0,0,0-11.314l-21.283-21.283c12.389-12.228,22.895-22.646,30.323-30.028A47.037,47.037,0,0,1,374.864,215.73ZM252.817,348.249l-16.734-16.735a33.536,33.536,0,0,0,.435-35.082L222.04,272h21.629l10.767,16.487A52.809,52.809,0,0,1,252.817,348.249Z"/><path d="M394.668,282.455a22.043,22.043,0,0,0-37.527-.51c-23.371,36.728-42.361,63.692-50.8,72.128-14.265,14.266-42.221,27.7-66.886,39.561-32.283,15.517-57.783,27.775-63.046,43.566-2,6-3.521,11.532-4.862,16.409-4.288,15.6-6.546,22.675-15.126,26.966-5.272,2.633-15.78,1.53-28.82-3.033a68.119,68.119,0,0,0-33.676-2.914,8,8,0,0,0-1.806.524,71.7,71.7,0,0,1-56.145-.133l-10.12-4.344a16.229,16.229,0,0,1-8.4-8.214l47.677-6.811a7.991,7.991,0,0,0,1.8-.475c2.568-1.012,63.123-24.953,82.276-41.371,13.223-11.337,32.917-29.43,58.534-53.775a8,8,0,1,0-11.022-11.6c-25.42,24.157-44.909,42.064-57.926,53.224-13.968,11.974-59.37,31.354-76.857,38.288L6.869,447.811A8,8,0,0,0,0,455.73a32.21,32.21,0,0,0,19.554,29.652l10.111,4.34a87.7,87.7,0,0,0,67.768.55,52.084,52.084,0,0,1,24.876,2.37c10.149,3.549,19.012,5.327,26.522,5.327a32.709,32.709,0,0,0,14.747-3.083c15.323-7.661,19.065-21.274,23.4-37.034,1.351-4.914,2.748-9.994,4.613-15.591,3.122-9.366,31.776-23.14,54.8-34.207,27.077-13.016,55.076-26.475,71.268-42.666,12.8-12.8,38.691-52.394,52.985-74.858a6.054,6.054,0,0,1,10.329.2c20.06,33.223,74.831,93.1,117.245,137.482a8,8,0,0,0,11.568-11.055C450.614,355.239,409.731,307.4,394.668,282.455Z"/><circle cx="216" cy="168" r="8"/><path d="M224,136V104a8,8,0,0,0-16,0v32a8,8,0,0,0,16,0Z"/><path d="M192,72V40a8,8,0,0,0-16,0V72a8,8,0,0,0,16,0Z"/><path d="M144,56a8,8,0,0,0-16,0V96a8,8,0,0,0,16,0Z"/></g></g></svg>
